<?xml version="1.0" encoding="UTF-8"?>
<svg version="1.1" xmlns="http://www.w3.org/2000/svg" width="64" height="64">
<path d="M0 0 C1.11841782 -0.01285538 1.11841782 -0.01285538 2.25942993 -0.02597046 C3.82753462 -0.03738924 5.39574518 -0.03850771 6.96386719 -0.02978516 C9.33976414 -0.02346887 11.71065603 -0.07041977 14.0859375 -0.12109375 C21.60177143 -0.18648318 27.9796367 -0.04183288 34.23681641 4.62744141 C39.03784123 10.07525038 40.59627759 14.64278677 40.578125 21.84375 C40.58669525 22.61155792 40.5952655 23.37936584 40.60409546 24.17044067 C40.61551722 25.78562499 40.6166305 27.40091212 40.60791016 29.01611328 C40.60159392 31.464383 40.64854332 33.90779635 40.69921875 36.35546875 C40.76447611 44.08087582 40.77493891 50.46083611 35.95068359 56.87939453 C30.56176667 61.58053477 26.05525117 63.22158692 18.953125 63.203125 C17.83470718 63.21598038 17.83470718 63.21598038 16.69369507 63.22909546 C15.12559038 63.24051424 13.55737982 63.24163271 11.98925781 63.23291016 C9.61336086 63.22659387 7.24246897 63.27354477 4.8671875 63.32421875 C-2.64864643 63.38960818 -9.0265117 63.24495788 -15.28369141 58.57568359 C-20.08471623 53.12787462 -21.64315259 48.56033823 -21.625 41.359375 C-21.63357025 40.59156708 -21.6421405 39.82375916 -21.65097046 39.03268433 C-21.66239222 37.41750001 -21.6635055 35.80221288 -21.65478516 34.18701172 C-21.64846892 31.738742 -21.69541832 29.29532865 -21.74609375 26.84765625 C-21.81135111 19.12224918 -21.82181391 12.74228889 -16.99755859 6.32373047 C-11.60864167 1.62259023 -7.10212617 -0.01846192 0 0 Z " fill="#D79D5C" transform="translate(23.0234375,0.3984375)"/>
<path d="M0 0 C2.97 0 5.94 0 9 0 C9.27714844 0.99902344 9.55429688 1.99804688 9.83984375 3.02734375 C10.20555549 4.33077791 10.57145038 5.63416069 10.9375 6.9375 C11.11990234 7.59685547 11.30230469 8.25621094 11.49023438 8.93554688 C12.22596101 12.23821173 12.22596101 12.23821173 14 15 C14.27714844 14.00097656 14.55429687 13.00195312 14.83984375 11.97265625 C15.20555549 10.66922209 15.57145038 9.36583931 15.9375 8.0625 C16.11990234 7.40314453 16.30230469 6.74378906 16.49023438 6.06445312 C17.88671875 1.11328125 17.88671875 1.11328125 19 0 C21.64 0 24.28 0 27 0 C27 7.92 27 15.84 27 24 C25.02 24 23.04 24 21 24 C20.505 19.05 20.505 19.05 20 14 C19.01 17.3 18.02 20.6 17 24 C14.69 24 12.38 24 10 24 C9.01 20.04 8.02 16.08 7 12 C6.67 15.96 6.34 19.92 6 24 C4.02 24 2.04 24 0 24 C0 16.08 0 8.16 0 0 Z " fill="#FCF7F2" transform="translate(5,20)"/>
<path d="M0 0 C4.62 0 9.24 0 14 0 C14 2.31 14 4.62 14 7 C9.38 7 4.76 7 0 7 C0 4.69 0 2.38 0 0 Z " fill="#104E66" transform="translate(45,37)"/>
<path d="M0 0 C2.31 0 4.62 0 7 0 C7 2.31 7 4.62 7 7 C4.69 7 2.38 7 0 7 C0 4.69 0 2.38 0 0 Z " fill="#305C3A" transform="translate(35,37)"/>
</svg>
